<svg width="83" height="28" viewBox="0 0 83 28" fill="none" xmlns="http://www.w3.org/2000/svg">
<path d="M14 5C9.04 5 5 9.04 5 14C5 18.96 9.04 23 14 23H23V17.64H14V12.64H28V28H14C6.28 28 0 21.72 0 14C0 6.28 6.28 0 14 0H28V5H14Z" fill="#BFFF00"/>
<path d="M41.9922 5C37.0322 5 32.9922 9.04 32.9922 14C32.9922 18.96 37.0322 23 41.9922 23H50.9922V17.64H41.9922V12.64H55.9922V28H41.9922C34.2722 28 27.9922 21.72 27.9922 14C27.9922 6.28 34.2722 0 41.9922 0H55.9922V5H41.9922Z" fill="#BFFF00"/>
<path d="M82.4644 7.72L77.4644 7.76V7.6C77.4644 6.2 76.3044 5.04 74.9044 5.04H63.5444C62.1444 5.04 60.9844 6.2 60.9844 7.6V7.76C60.9844 9.16 62.1444 10.32 63.5444 10.32H73.6244C76.2244 10.32 78.5444 11.44 80.1444 13.2C80.2644 13.32 80.3444 13.44 80.4644 13.56C81.7044 15.08 82.4644 17.04 82.4644 19.16C82.4644 24.04 78.5044 28 73.6244 28H64.8644C59.9844 28 56.0244 24.04 56.0244 19.16H61.0244C61.0244 21.28 62.7444 23 64.8644 23H73.6244C75.7444 23 77.5044 21.28 77.5044 19.16C77.5044 17.04 75.7444 15.32 73.6244 15.32H63.5444C61.5044 15.32 59.6644 14.52 58.3044 13.2C57.9444 12.84 57.6244 12.44 57.3444 12C56.5044 10.8 56.0244 9.32 56.0244 7.72V7.56C56.0244 3.4 59.3844 0 63.5444 0H74.9044C79.0644 0 82.4644 3.4 82.4644 7.56V7.72Z" fill="#BFFF00"/>
</svg>
